PathFileType	4	(X/Y/Z)	D:\Share\Shared_Data\Ergonomics\Sit To Stand Pertubation\S1\Unperturbed_NoHarness.trc
DataRate	CameraRate	NumFrames	NumMarkers	Units	OrigDataRate	OrigDataStartFrame	OrigNumFrames	
100	100	19	18	m	100	1526	281
Frame#	Time	R_Thigh_Med			R_ASIS			R_Pelvis			V_Sacral			L_Pelvis			L_ASIS			Clavical			R_Acromium			L_Acromium			Sternum			Torso			R_Thigh_Lat			R_Thigh			R_Shank_Med			R_Shank_Lat			R_Shank			R_Heel			R_Toe			
		X1	Y1	Z1	X2	Y2	Z2	X3	Y3	Z3	X4	Y4	Z4	X5	Y5	Z5	X6	Y6	Z6	X7	Y7	Z7	X8	Y8	Z8	X9	Y9	Z9	X10	Y10	Z10	X11	Y11	Z11	X12	Y12	Z12	X13	Y13	Z13	X14	Y14	Z14	X15	Y15	Z15	X16	Y16	Z16	X17	Y17	Z17	X18	Y18	Z18	

1526	15.25	0.33738794	0.4207439	0.036671032	0.47070856	0.89541278	0.08240612	0.38822177	0.906117	0.11241585	0.30614911	0.89800568	-0.033825455	0.41014911	0.90250995	-0.17991013	0.49527127	0.9021416	-0.11584411	0.44802283	1.2483325	-0.025391121	0.37260333	1.3168705	0.12007036	0.34811444	1.2687444	-0.23026491	0.4269989	1.2606683	0.076337341	0.4462312	1.2537194	-0.085364006	0.35521826	0.4405206	0.15491808	0.45489304	0.5977121	0.096522682	0.31570917	0.10253121	0.071770882	0.29020676	0.10124036	0.15116692	0.31429901	0.31213593	0.17101692	0.2443175	0.032799572	0.092053207	0.44828247	0.050866367	0.12306483
1527	15.26	0.3373194	0.42074493	0.036668404	0.47065161	0.89538373	0.082437706	0.38816699	0.90610577	0.11244026	0.30606897	0.89803259	-0.033789619	0.41004587	0.90251306	-0.179884	0.49513641	0.90214331	-0.11582137	0.44798306	1.2483127	-0.025387207	0.3726553	1.3168489	0.1201208	0.34755222	1.2692601	-0.23106734	0.42700439	1.2606505	0.076359322	0.4461507	1.2537078	-0.085356903	0.35508389	0.44057095	0.15498003	0.45478757	0.5977027	0.096554771	0.31568683	0.10250592	0.071765686	0.29012912	0.10124036	0.15118933	0.31415576	0.31213089	0.17101366	0.24432007	0.032795872	0.092052299	0.44833408	0.050840645	0.12306045
1528	15.27	0.33725073	0.42074988	0.036670906	0.47059006	0.89535846	0.082472588	0.38810236	0.90610535	0.11247598	0.30598874	0.89806213	-0.033738094	0.40993954	0.90252026	-0.17985042	0.49503183	0.90214221	-0.11579034	0.44794891	1.2483036	-0.025375177	0.37270694	1.3168345	0.12017676	0.34709088	1.2696652	-0.23168799	0.42701349	1.2606383	0.076390427	0.44607843	1.2536982	-0.085341301	0.35494751	0.44062021	0.15503941	0.45468048	0.59769543	0.096590988	0.31566174	0.10248404	0.071762772	0.29005368	0.10124223	0.15122174	0.31401282	0.31212848	0.17101422	0.24432222	0.032792786	0.092052727	0.44838016	0.050817265	0.12305722
1529	15.28	0.33718393	0.42075848	0.036679401	0.47052084	0.89533972	0.082509216	0.38803516	0.90611261	0.11252293	0.30590744	0.89809357	-0.033673508	0.4098313	0.90253186	-0.17981	0.49494232	0.90214062	-0.11575327	0.44791943	1.248304	-0.025354923	0.37275696	1.3168298	0.12023629	0.34674344	1.26995	-0.23210518	0.42702353	1.2606333	0.076429672	0.44601456	1.2536923	-0.08531617	0.35481613	0.44066443	0.15509296	0.45457419	0.59769049	0.096630783	0.31563367	0.102465	0.071762772	0.28998306	0.10124527	0.15126459	0.31387833	0.3121254	0.17102274	0.24432355	0.032790234	0.092054634	0.44842041	0.050797215	0.12305501
1530	15.29	0.33712073	0.42076971	0.036693863	0.47044275	0.8953288	0.082547485	0.38797006	0.90612408	0.11258031	0.30582373	0.89812573	-0.033600327	0.40972238	0.90254767	-0.17976392	0.4948573	0.90213983	-0.11571134	0.44789401	1.2483124	-0.025326454	0.37280478	1.3168363	0.12029768	0.34650137	1.2701287	-0.23233736	0.42703308	1.2606361	0.076476051	0.44595917	1.2536915	-0.085280762	0.35469672	0.44070035	0.15513925	0.45447147	0.59768787	0.096673256	0.31560272	0.10244776	0.071765663	0.28991934	0.10124894	0.15131691	0.31375919	0.31211832	0.17104163	0.24432359	0.03278809	0.092058037	0.44845483	0.05078067	0.1230537
1531	15.3	0.33706238	0.42078235	0.036713253	0.47035556	0.89532587	0.082588448	0.38790958	0.90613635	0.11264658	0.30573627	0.89815656	-0.033523472	0.40961429	0.90256714	-0.17971317	0.49477051	0.9021405	-0.11566474	0.44787265	1.2483256	-0.025289825	0.37285104	1.3168549	0.12035973	0.34634644	1.2702238	-0.23241962	0.42704187	1.2606464	0.076528992	0.44591257	1.2536963	-0.085234818	0.35459418	0.44072589	0.15517863	0.45437457	0.59768744	0.09671727	0.31556952	0.10243118	0.071770668	0.28986334	0.10125276	0.15137643	0.31365973	0.31210538	0.17107072	0.24432207	0.032786198	0.092062843	0.44848386	0.050767586	0.12305289
1532	15.31	0.33700882	0.42079529	0.036736038	0.47026059	0.89532971	0.082633751	0.38785406	0.90614648	0.11271963	0.30564417	0.89818457	-0.033446831	0.40950824	0.90258905	-0.17965829	0.49467871	0.90214319	-0.11561288	0.44785562	1.2483413	-0.025245083	0.37289737	1.316884	0.12042202	0.34625812	1.2702571	-0.23238913	0.42705017	1.2606632	0.07658844	0.44587509	1.2537064	-0.085178627	0.35451001	0.44074088	0.15521223	0.45428491	0.59768884	0.096761658	0.3155351	0.10241426	0.071776581	0.28981436	0.10125639	0.15144006	0.31358105	0.31208627	0.1711076	0.24431908	0.032784416	0.092068779	0.44850854	0.050758091	0.12305181
1533	15.32	0.33695898	0.42080759	0.036760765	0.47016037	0.8953382	0.082684998	0.3878013	0.90615259	0.11279708	0.30554688	0.89820844	-0.033372475	0.40940463	0.90261212	-0.17959933	0.49458093	0.9021485	-0.11555465	0.44784341	1.2483575	-0.025192255	0.37294638	1.3169225	0.12048475	0.34621799	1.2702463	-0.23227837	0.42705869	1.2606848	0.076654732	0.44584705	1.2537211	-0.085112892	0.35444272	0.44074689	0.15524161	0.45420236	0.59769177	0.09680558	0.31550043	0.10239632	0.071782181	0.28977066	0.10125961	0.15150462	0.31352115	0.31206195	0.17114897	0.24431511	0.032782543	0.092075386	0.44852997	0.050752075	0.12304986
1534	15.33	0.33691098	0.42081888	0.036786308	0.47005838	0.89534863	0.082743057	0.38774622	0.90615466	0.11287703	0.30544473	0.89822662	-0.033300304	0.4093027	0.90263513	-0.17953639	0.49447717	0.9021571	-0.11548853	0.44783679	1.2483728	-0.025131416	0.37300037	1.3169678	0.12054852	0.34621152	1.2702046	-0.23211369	0.42706854	1.2607095	0.076728271	0.44582852	1.2537394	-0.085038498	0.35438837	0.44074643	0.15526865	0.45412549	0.59769537	0.096848587	0.31546631	0.10237714	0.071786644	0.28973004	0.10126193	0.15156757	0.31347571	0.31203345	0.17119205	0.24431068	0.032780216	0.09208213	0.44854861	0.050748871	0.12304694
1535	15.34	0.33686279	0.42082849	0.036812057	0.46995786	0.89535846	0.082807602	0.38768332	0.90615424	0.11295863	0.3053385	0.89823779	-0.033228409	0.40920059	0.90265698	-0.17946973	0.49436783	0.90216986	-0.11541344	0.4478364	1.2483862	-0.025062717	0.37306055	1.3170168	0.12061422	0.34622772	1.2701427	-0.23191779	0.42708115	1.2607346	0.076809235	0.44581937	1.2537593	-0.084956429	0.35434146	0.44074203	0.15529535	0.45405215	0.59769824	0.0968909	0.31543323	0.10235675	0.071789734	0.28969025	0.10126252	0.1516273	0.31343939	0.31200177	0.17123564	0.24430629	0.032777054	0.092088577	0.44856451	0.050747612	0.12304341
1536	15.35	0.33681235	0.42083557	0.036838326	0.46986099	0.8953656	0.082877213	0.38761069	0.9061521	0.11304171	0.30522937	0.89824121	-0.033154083	0.40909552	0.90267719	-0.1793996	0.49425336	0.90218591	-0.11532993	0.44784241	1.2483983	-0.024986464	0.37312747	1.317067	0.12068295	0.3462587	1.270073	-0.2317121	0.42709811	1.2607581	0.076897675	0.44581952	1.2537787	-0.084867813	0.35429605	0.44073511	0.15532353	0.45398016	0.59769867	0.09693335	0.31540128	0.10233547	0.071791786	0.28964938	0.10126019	0.15168326	0.31340738	0.31196765	0.17127983	0.24430217	0.032772888	0.092094566	0.44857791	0.050747665	0.12303973
1537	15.36	0.33675812	0.42083893	0.036866547	0.4697691	0.89536884	0.082949997	0.38753183	0.90614844	0.11312579	0.30511868	0.89823785	-0.033075005	0.40898526	0.90269598	-0.17932603	0.4941344	0.90220264	-0.1152408	0.44785489	1.2484092	-0.024903225	0.37320074	1.3171162	0.12075568	0.34629901	1.2700063	-0.23151375	0.42712094	1.2607773	0.076993271	0.44582922	1.2537961	-0.084774002	0.35424722	0.44072543	0.15535463	0.45390765	0.59769531	0.096976974	0.31537054	0.10231378	0.071793411	0.28960663	0.10125382	0.15173546	0.31337582	0.31193201	0.17132549	0.2442982	0.032767895	0.092100227	0.4485892	0.050748577	0.12303638
1538	15.37	0.33669907	0.42083707	0.036898869	0.46968259	0.89536749	0.083024094	0.38745383	0.90614203	0.11320986	0.30500769	0.89823047	-0.032990166	0.40886868	0.90271466	-0.17924879	0.49401135	0.90221735	-0.11514983	0.44787354	1.2484197	-0.024813869	0.37327936	1.3171626	0.12083293	0.34634515	1.2699465	-0.23132991	0.42715118	1.2607914	0.0770952	0.44584845	1.2538096	-0.084676674	0.35419205	0.44071216	0.15538947	0.45383319	0.59768671	0.097022469	0.31534079	0.10229221	0.071795303	0.28956235	0.10124252	0.15178419	0.31334271	0.31189609	0.17137321	0.24429404	0.032762562	0.092106087	0.44859863	0.050749832	0.12303382
1539	15.38	0.33663461	0.42082938	0.036937412	0.46960178	0.89536157	0.083097931	0.38738373	0.9061322	0.11329309	0.30489737	0.89822321	-0.032899895	0.4087464	0.90273431	-0.17916769	0.4938844	0.90222821	-0.11506007	0.44789841	1.2484313	-0.024719578	0.37336179	1.3172051	0.12091466	0.34639447	1.2698949	-0.23116084	0.42719019	1.2607997	0.077201866	0.44587689	1.2538193	-0.084577652	0.35413025	0.44069363	0.15542732	0.4537561	0.59767261	0.097069809	0.31531183	0.10227121	0.071797913	0.28951773	0.10122592	0.15182991	0.31330768	0.31186127	0.17142311	0.24428935	0.032757385	0.092112801	0.44860617	0.050751038	0.12303244
1540	15.39	0.33656439	0.42081641	0.036983521	0.46952667	0.89535156	0.083170219	0.38732614	0.90611896	0.11337547	0.30478818	0.89822095	-0.032805397	0.40862039	0.90275647	-0.17908273	0.49375406	0.90223468	-0.11497279	0.44793002	1.2484453	-0.024621922	0.37344638	1.3172434	0.12100027	0.34644443	1.2698536	-0.2310071	0.4272392	1.260803	0.077311096	0.44591348	1.2538264	-0.084478699	0.35406323	0.44066779	0.15546519	0.45367694	0.59765302	0.097118233	0.31528323	0.10225106	0.071801468	0.28947488	0.10120456	0.15187271	0.31327161	0.31182889	0.17147417	0.24428404	0.032752796	0.092120659	0.44861172	0.050752052	0.12303236
1541	15.4	0.33648868	0.4207995	0.037037521	0.46945755	0.89533856	0.083239876	0.38728256	0.90610291	0.11345779	0.30468042	0.89822815	-0.032708164	0.40849347	0.90278174	-0.17899417	0.49362128	0.90223651	-0.11488743	0.44796954	1.2484623	-0.024522942	0.37353192	1.3172783	0.12108891	0.34649261	1.2698258	-0.23086902	0.42729913	1.260804	0.077420509	0.44595709	1.2538323	-0.084381393	0.3539935	0.44063254	0.1554987	0.45359702	0.59762927	0.097166412	0.31525485	0.10223183	0.071805855	0.28943631	0.10117982	0.15191237	0.31323642	0.31179984	0.17152463	0.24427846	0.032748985	0.092129311	0.44861569	0.050753021	0.12303316
1542	15.41	0.33640805	0.42078067	0.037098686	0.46939471	0.89532355	0.083305931	0.3872518	0.90608563	0.11354126	0.30457416	0.89824805	-0.032609592	0.40836783	0.90281073	-0.17890257	0.49348764	0.90223407	-0.11480308	0.44801846	1.2484827	-0.024424953	0.37361819	1.3173107	0.12117973	0.34653717	1.2698121	-0.23074393	0.42737027	1.2608048	0.077527863	0.44600647	1.253839	-0.084287071	0.3539238	0.44058817	0.15552457	0.45351785	0.59760309	0.097212631	0.31522641	0.10221349	0.071810829	0.28940405	0.10115317	0.15194855	0.31320419	0.31177457	0.17157286	0.24427309	0.032745762	0.092137817	0.44861868	0.050754192	0.12303425
1543	15.42	0.3363233	0.42076196	0.037165428	0.46933847	0.89530792	0.08336763	0.38723151	0.90606873	0.11362662	0.30446957	0.89828094	-0.032510544	0.4082442	0.90284387	-0.1788093	0.49335394	0.90222913	-0.11471968	0.44807758	1.2485066	-0.024330235	0.37370618	1.3173427	0.12127206	0.34657651	1.2698098	-0.23062711	0.42745251	1.2608086	0.07763134	0.44606079	1.2538485	-0.084196808	0.35385684	0.44053802	0.15554272	0.45344083	0.59757703	0.097255104	0.31519775	0.10219613	0.071816208	0.28937894	0.10112554	0.15198091	0.31317676	0.31175302	0.17161792	0.24426842	0.032742691	0.092145142	0.44862125	0.050755802	0.12303521
1544	15.43	0.3362355	0.42074524	0.037235588	0.46928845	0.8952923	0.08342437	0.38721921	0.90605402	0.11371362	0.30436658	0.89832587	-0.032410904	0.40812128	0.9028811	-0.17871614	0.49322046	0.90222394	-0.11463848	0.44814728	1.2485336	-0.024240843	0.37379849	1.3173754	0.1213653	0.34660947	1.2698167	-0.23051411	0.42754556	1.260818	0.077729431	0.44611926	1.2538615	-0.084111542	0.3537951	0.44048737	0.15555617	0.45336664	0.59755359	0.097292122	0.31516864	0.10217992	0.071822006	0.28936069	0.10109748	0.15200946	0.31315491	0.31173471	0.17165961	0.24426469	0.032739521	0.092150566	0.44862375	0.050757946	0.12303597
